<svg width="151" height="24" viewBox="0 0 151 24" fill="none" xmlns="http://www.w3.org/2000/svg">
<g clip-path="url(#clip0_2770_76242)">
<g clip-path="url(#clip1_2770_76242)">
<path d="M18.1365 6.15826H18.2281L18.1698 6.11658L21.5031 2.78325V2.72491C20.1223 1.49409 18.4494 0.637333 16.6436 0.236252C14.8379 -0.16483 12.9595 -0.0968722 11.1875 0.433649C9.4155 0.964171 7.80882 1.9396 6.52057 3.26698C5.23232 4.59436 4.3054 6.22948 3.82812 8.01658L4.00312 7.95824C4.85149 7.39117 5.80369 6.99762 6.80486 6.80025C7.80602 6.60288 8.83635 6.60561 9.83646 6.80826H9.90313C10.9396 5.67235 12.3708 4.97506 13.9041 4.8589C15.4375 4.74274 16.9573 5.21646 18.1531 6.18326L18.1365 6.15826Z" fill="white"/>
<path d="M24.8521 8.01628C24.2991 5.96906 23.1575 4.12913 21.5687 2.72461L18.1771 6.11628C18.8845 6.69384 19.4515 7.42444 19.8355 8.25302C20.2195 9.0816 20.4104 9.98653 20.3938 10.8996V11.4996C24.4188 11.4996 24.4188 17.5413 20.3938 17.5413H14.3438V22.3329H20.3854C22.0726 22.3479 23.7197 21.8189 25.0826 20.8243C26.4455 19.8297 27.4517 18.4224 27.952 16.8111C28.4524 15.1997 28.4202 13.4701 27.8603 11.8784C27.3005 10.2868 26.2427 8.91789 24.8437 7.97463L24.8521 8.01628Z" fill="white"/>
<path d="M8.31146 22.3417H14.3448V17.5084H8.31146C7.88244 17.5086 7.45859 17.4148 7.06979 17.2334L3.57812 20.7251V20.7667C4.94496 21.7942 6.60989 22.3472 8.31979 22.3417H8.31146Z" fill="white"/>
<path d="M8.30935 6.65823C6.67302 6.66671 5.08024 7.18633 3.75371 8.14444C2.42718 9.10255 1.43322 10.4513 0.910803 12.002C0.388387 13.5527 0.363631 15.2279 0.839999 16.7934C1.31637 18.3589 2.27004 19.7364 3.56768 20.7332L7.06768 17.2332C6.62451 17.0308 6.23697 16.724 5.93821 16.3391C5.63944 15.9543 5.43834 15.5028 5.35211 15.0232C5.26588 14.5437 5.29708 14.0504 5.44305 13.5856C5.58901 13.1207 5.8454 12.6982 6.19028 12.354C6.53516 12.0098 6.95826 11.7543 7.42341 11.6093C7.88856 11.4643 8.3819 11.4342 8.86125 11.5214C9.3406 11.6086 9.79169 11.8107 10.1759 12.1102C10.5602 12.4098 10.8662 12.798 11.0677 13.2416L14.5677 9.74158C13.8328 8.77998 12.8855 8.00134 11.7999 7.46646C10.7142 6.93159 9.5196 6.65496 8.30935 6.65823Z" fill="white"/>
<path d="M44.3859 18.933C43.3459 18.9445 42.3143 18.7469 41.3523 18.3518C40.3902 17.9566 39.5175 17.3721 38.7859 16.633C38.0431 15.9163 37.4524 15.0574 37.0489 14.1074C36.6454 13.1575 36.4375 12.1359 36.4375 11.1038C36.4375 10.0717 36.6454 9.05019 37.0489 8.10022C37.4524 7.15025 38.0431 6.29131 38.7859 5.57466C39.5131 4.82684 40.3841 4.23387 41.3465 3.83145C42.3089 3.42902 43.3428 3.22545 44.3859 3.233C45.3793 3.22068 46.3653 3.40587 47.2866 3.77781C48.2079 4.14976 49.0461 4.70106 49.7525 5.39967L48.2442 6.933C47.2109 5.93354 45.8232 5.38504 44.3859 5.40799C43.6412 5.39312 42.9017 5.53367 42.2144 5.82063C41.5271 6.1076 40.9072 6.53469 40.3942 7.07465C39.3472 8.14452 38.7609 9.58192 38.7609 11.0788C38.7609 12.5758 39.3472 14.0131 40.3942 15.083C41.446 16.1283 42.8637 16.7226 44.3464 16.7397C45.8292 16.7568 47.2602 16.1954 48.3359 15.1747C49.0019 14.4454 49.409 13.517 49.4942 12.533H44.4109V10.3663H51.6109C51.6845 10.8039 51.7124 11.248 51.6942 11.6913C51.7389 12.6071 51.5972 13.5225 51.2778 14.3819C50.9584 15.2414 50.4678 16.027 49.8359 16.6913C49.1344 17.4233 48.2864 17.999 47.3473 18.381C46.4082 18.763 45.3991 18.9425 44.3859 18.908V18.933ZM61.1275 17.4913C60.1611 18.4173 58.8743 18.9342 57.5359 18.9342C56.1974 18.9342 54.9107 18.4173 53.9442 17.4913C53.0031 16.5277 52.4762 15.2341 52.4762 13.8872C52.4762 12.5402 53.0031 11.2466 53.9442 10.283C54.9107 9.35703 56.1974 8.84009 57.5359 8.84009C58.8743 8.84009 60.1611 9.35703 61.1275 10.283C62.0706 11.2456 62.5989 12.5395 62.5989 13.8872C62.5989 15.2348 62.0706 16.5287 61.1275 17.4913ZM55.5275 16.0747C55.7854 16.3486 56.0966 16.5669 56.442 16.7161C56.7874 16.8653 57.1596 16.9422 57.5359 16.9422C57.9121 16.9422 58.2843 16.8653 58.6297 16.7161C58.9751 16.5669 59.2863 16.3486 59.5442 16.0747C60.0859 15.4732 60.3856 14.6924 60.3856 13.883C60.3856 13.0736 60.0859 12.2928 59.5442 11.6913C59.2836 11.4191 58.9706 11.2024 58.624 11.0544C58.2774 10.9064 57.9044 10.8301 57.5275 10.8301C57.1507 10.8301 56.7777 10.9064 56.4311 11.0544C56.0845 11.2024 55.7715 11.4191 55.5109 11.6913C55.2307 11.9811 55.0124 12.3249 54.8692 12.7016C54.7259 13.0784 54.6607 13.4803 54.6775 13.883C54.6631 14.2854 54.7294 14.6867 54.8725 15.0631C55.0157 15.4395 55.2327 15.7835 55.5109 16.0747H55.5275ZM72.1942 17.4913C71.2277 18.4173 69.941 18.9342 68.6025 18.9342C67.2641 18.9342 65.9773 18.4173 65.0109 17.4913C64.0697 16.5277 63.5428 15.2341 63.5428 13.8872C63.5428 12.5402 64.0697 11.2466 65.0109 10.283C65.9773 9.35703 67.2641 8.84009 68.6025 8.84009C69.941 8.84009 71.2277 9.35703 72.1942 10.283C73.1353 11.2466 73.6622 12.5402 73.6622 13.8872C73.6622 15.2341 73.1353 16.5277 72.1942 17.4913ZM66.5942 16.0747C66.8521 16.3486 67.1633 16.5669 67.5087 16.7161C67.8541 16.8653 68.2263 16.9422 68.6025 16.9422C68.9788 16.9422 69.351 16.8653 69.6964 16.7161C70.0418 16.5669 70.353 16.3486 70.6109 16.0747C71.1578 15.4758 71.461 14.694 71.461 13.883C71.461 13.0719 71.1578 12.2902 70.6109 11.6913C70.3503 11.4191 70.0372 11.2024 69.6906 11.0544C69.344 10.9064 68.9711 10.8301 68.5942 10.8301C68.2173 10.8301 67.8443 10.9064 67.4978 11.0544C67.1512 11.2024 66.8381 11.4191 66.5775 11.6913C66.2994 11.9825 66.0823 12.3265 65.9392 12.7029C65.7961 13.0793 65.7298 13.4806 65.7442 13.883C65.7321 14.2852 65.7995 14.6858 65.9425 15.0619C66.0855 15.438 66.3013 15.7821 66.5775 16.0747H66.5942ZM79.4525 23.458C78.4354 23.4918 77.4377 23.1739 76.6275 22.558C75.9016 22.0189 75.3274 21.3012 74.9609 20.4747L76.9025 19.6413C77.1075 20.139 77.4377 20.5754 77.8609 20.908C78.3084 21.2684 78.8698 21.4575 79.4442 21.4413C79.8091 21.4626 80.1743 21.4051 80.5151 21.2728C80.8558 21.1405 81.1642 20.9365 81.4192 20.6747C81.9308 20.0605 82.1847 19.272 82.1275 18.4747V17.7413H82.0442C81.7232 18.1269 81.3162 18.4317 80.8559 18.6315C80.3957 18.8312 79.8951 18.9202 79.3942 18.8913C78.7578 18.8921 78.1281 18.7614 77.5445 18.5076C76.9609 18.2538 76.436 17.8823 76.0025 17.4163C75.072 16.4623 74.5512 15.1823 74.5512 13.8497C74.5512 12.517 75.072 11.2371 76.0025 10.283C76.4332 9.81238 76.9573 9.43668 77.5412 9.17986C78.1252 8.92303 78.7563 8.7907 79.3942 8.79132C79.9328 8.79421 80.4644 8.91362 80.9525 9.14133C81.3769 9.33342 81.7527 9.61818 82.0525 9.97466H82.1359V9.14133H84.2359V18.1747C84.2909 18.8902 84.1996 19.6095 83.9675 20.2886C83.7354 20.9678 83.3674 21.5925 82.8859 22.1246C82.428 22.563 81.8866 22.9047 81.2938 23.1295C80.7011 23.3543 80.0693 23.4575 79.4359 23.433L79.4525 23.458ZM79.6025 16.9497C79.9632 16.9573 80.3213 16.8867 80.6521 16.7429C80.983 16.5991 81.2788 16.3853 81.5192 16.1163C82.0435 15.5155 82.3205 14.7383 82.2942 13.9413C82.3248 13.1336 82.0478 12.3444 81.5192 11.733C81.2813 11.4609 80.986 11.245 80.6545 11.1009C80.3231 10.9568 79.9638 10.888 79.6025 10.8996C79.2317 10.8895 78.863 10.9586 78.5209 11.1023C78.1789 11.246 77.8715 11.461 77.6192 11.733C77.0667 12.3272 76.7678 13.1135 76.7859 13.9247C76.7659 14.7312 77.0654 15.513 77.6192 16.0997C77.8731 16.3695 78.1809 16.5831 78.5225 16.7267C78.8641 16.8702 79.232 16.9405 79.6025 16.933V16.9497ZM87.9942 18.6163H85.7525V3.833H88.0025V18.658L87.9942 18.6163ZM94.0609 18.9247C93.4029 18.946 92.7476 18.832 92.1356 18.5897C91.5235 18.3475 90.9677 17.9821 90.5025 17.5163C89.5891 16.538 89.077 15.252 89.0677 13.9136C89.0584 12.5752 89.5528 11.2822 90.4525 10.2913C90.8882 9.83229 91.4149 9.46921 91.9989 9.22528C92.583 8.98134 93.2114 8.86191 93.8442 8.87466C94.416 8.86885 94.9831 8.97944 95.5109 9.19967C95.9932 9.39224 96.4345 9.67507 96.8109 10.033C97.1241 10.3442 97.4035 10.6878 97.6442 11.058C97.842 11.3719 98.0094 11.7039 98.1442 12.0497L98.3692 12.633L91.5859 15.4163C91.7906 15.8884 92.1334 16.2875 92.5692 16.5612C93.005 16.8349 93.5134 16.9703 94.0275 16.9497C94.5292 16.9495 95.0224 16.8208 95.4601 16.5757C95.8978 16.3306 96.2653 15.9773 96.5275 15.5497L98.1942 16.6913C97.7593 17.3072 97.2071 17.8311 96.5692 18.233C95.8049 18.717 94.9154 18.9661 94.0109 18.9497L94.0609 18.9247ZM91.2275 13.7247L95.7359 11.8497C95.5992 11.5181 95.3518 11.2443 95.0359 11.0747C94.6817 10.8782 94.2825 10.7777 93.8775 10.783C93.5333 10.7941 93.1947 10.8735 92.8814 11.0165C92.5681 11.1596 92.2864 11.3635 92.0525 11.6163C91.7656 11.8907 91.5422 12.2247 91.3983 12.5947C91.2543 12.9647 91.1932 13.3618 91.2192 13.758L91.2275 13.7247Z" fill="white"/>
<path d="M109.979 18.9329C109.036 18.9471 108.1 18.7715 107.227 18.4164C106.354 18.0614 105.561 17.5342 104.896 16.8662C103.884 15.8661 103.194 14.5872 102.914 13.1929C102.633 11.7986 102.775 10.3524 103.321 9.03906C103.867 7.72573 104.792 6.60498 105.978 5.82009C107.164 5.03521 108.557 4.62186 109.979 4.63288C110.927 4.60892 111.868 4.79786 112.733 5.18581C113.599 5.57376 114.366 6.15084 114.979 6.87455L113.779 8.09955C113.327 7.53079 112.748 7.07663 112.087 6.774C111.427 6.47137 110.705 6.32881 109.979 6.35789C109.28 6.34494 108.586 6.47252 107.937 6.73305C107.289 6.99359 106.699 7.38179 106.204 7.87456C105.213 8.95136 104.663 10.3612 104.663 11.8246C104.663 13.2879 105.213 14.6978 106.204 15.7745C106.699 16.2674 107.289 16.6551 107.937 16.9143C108.586 17.1735 109.28 17.2988 109.979 17.2829C110.79 17.2937 111.592 17.1209 112.327 16.7774C113.062 16.4339 113.709 15.9287 114.221 15.2996L115.446 16.5245C114.805 17.287 114.002 17.8964 113.096 18.3079C112.12 18.7607 111.055 18.9885 109.979 18.9745V18.9329Z" fill="white"/>
<path d="M116.969 18.6668H118.719V4.9668H116.969V18.6668Z" fill="white"/>
<path d="M121.585 10.4167C122.265 9.71542 123.143 9.23733 124.101 9.04575C125.059 8.85418 126.053 8.95817 126.951 9.34391C127.849 9.72965 128.609 10.379 129.13 11.206C129.651 12.0329 129.908 12.9986 129.868 13.9751C129.905 15.2968 129.416 16.5792 128.51 17.5417C127.589 18.4552 126.344 18.9677 125.047 18.9677C123.75 18.9677 122.505 18.4552 121.585 17.5417C120.715 16.5589 120.234 15.2917 120.234 13.9792C120.234 12.6667 120.715 11.3996 121.585 10.4167ZM122.893 16.4334C123.169 16.7259 123.503 16.959 123.872 17.1183C124.242 17.2775 124.64 17.3597 125.043 17.3597C125.445 17.3597 125.844 17.2775 126.213 17.1183C126.583 16.959 126.916 16.7259 127.193 16.4334C127.779 15.7482 128.1 14.8764 128.1 13.9751C128.1 13.0737 127.779 12.2019 127.193 11.5167C126.916 11.2242 126.583 10.9911 126.213 10.8319C125.844 10.6726 125.445 10.5905 125.043 10.5905C124.64 10.5905 124.242 10.6726 123.872 10.8319C123.503 10.9911 123.169 11.2242 122.893 11.5167C122.309 12.2027 121.988 13.0741 121.988 13.9751C121.988 14.876 122.309 15.7475 122.893 16.4334Z" fill="white"/>
<path d="M139.593 18.6581H137.927V17.3581H137.877C137.572 17.8511 137.144 18.2561 136.635 18.5331C136.104 18.8363 135.504 18.9971 134.893 18.9998C134.399 19.0307 133.904 18.9511 133.444 18.7666C132.984 18.582 132.571 18.2973 132.235 17.9331C131.593 17.1202 131.27 16.1008 131.327 15.0665V9.2998H133.077V14.7665C133.077 16.5081 133.852 17.3831 135.393 17.3831C135.735 17.3963 136.076 17.3275 136.386 17.1825C136.696 17.0376 136.967 16.8207 137.177 16.5498C137.633 15.9718 137.875 15.253 137.86 14.5165V9.33315H139.618V18.6915L139.593 18.6581Z" fill="white"/>
<path d="M145.545 18.9336C144.95 18.9309 144.362 18.8009 143.822 18.5522C143.281 18.3035 142.8 17.942 142.411 17.4919C141.561 16.5044 141.094 15.2448 141.094 13.9419C141.094 12.639 141.561 11.3794 142.411 10.3919C142.799 9.94082 143.28 9.5791 143.821 9.33166C144.362 9.08422 144.95 8.95694 145.545 8.95858C146.212 8.94587 146.872 9.10361 147.461 9.41691C147.981 9.67638 148.421 10.0707 148.736 10.5586H148.828L148.753 9.26691V4.93359H150.495V18.6253H148.828V17.3253H148.753C148.438 17.8154 147.998 18.2125 147.478 18.4753C146.893 18.7848 146.24 18.9424 145.578 18.9336H145.545ZM145.836 17.3253C146.239 17.3407 146.64 17.2691 147.013 17.1152C147.385 16.9613 147.72 16.7288 147.995 16.4336C148.54 15.7253 148.836 14.8566 148.836 13.9628C148.836 13.0689 148.54 12.2002 147.995 11.4919C147.726 11.1965 147.398 10.9604 147.033 10.7989C146.668 10.6374 146.273 10.5539 145.874 10.5539C145.474 10.5539 145.079 10.6374 144.714 10.7989C144.349 10.9604 144.022 11.1965 143.753 11.4919C143.202 12.1946 142.903 13.0616 142.903 13.9544C142.903 14.8472 143.202 15.7143 143.753 16.4169C144.02 16.7143 144.348 16.9508 144.715 17.1104C145.081 17.2699 145.478 17.3489 145.878 17.3419L145.836 17.3253Z" fill="white"/>
</g>
</g>
<defs>
<clipPath id="clip0_2770_76242">
<rect width="151" height="24" fill="white"/>
</clipPath>
<clipPath id="clip1_2770_76242">
<rect width="150" height="23.5" fill="white" transform="translate(0.5)"/>
</clipPath>
</defs>
</svg>
