{
	"asset":{
		"generator":"Khronos glTF Blender I/O v4.3.47",
		"version":"2.0"
	},
	"scene":0,
	"scenes":[
		{
			"name":"Scene",
			"nodes":[
				0
			]
		}
	],
	"nodes":[
		{
			"mesh":0,
			"name":"node_id3",
			"rotation":[
				0.7084974646568298,
				-0.004191035404801369,
				-0.003076055785641074,
				0.7056942582130432
			],
			"scale":[
				0.23632800579071045,
				0.23632805049419403,
				0.23632805049419403
			]
		}
	],
	"meshes":[
		{
			"name":"Mesh_0",
			"primitives":[
				{
					"attributes":{
						"POSITION":0,
						"NORMAL":1,
						"TEXCOORD_0":2,
						"COLOR_0":3
					},
					"indices":4
				}
			]
		}
	],
	"accessors":[
		{
			"bufferView":0,
			"componentType":5126,
			"count":1053,
			"max":[
				1.325660228729248,
				0.2199999988079071,
				1.4132952690124512
			],
			"min":[
				-0.8408197164535522,
				-0.2199999988079071,
				-1.3715157508850098
			],
			"type":"VEC3"
		},
		{
			"bufferView":1,
			"componentType":5126,
			"count":1053,
			"type":"VEC3"
		},
		{
			"bufferView":2,
			"componentType":5126,
			"count":1053,
			"type":"VEC2"
		},
		{
			"bufferView":3,
			"componentType":5123,
			"count":1053,
			"normalized":true,
			"type":"VEC4"
		},
		{
			"bufferView":4,
			"componentType":5123,
			"count":2520,
			"type":"SCALAR"
		}
	],
	"bufferViews":[
		{
			"buffer":0,
			"byteLength":12636,
			"byteOffset":0,
			"target":34962
		},
		{
			"buffer":0,
			"byteLength":12636,
			"byteOffset":12636,
			"target":34962
		},
		{
			"buffer":0,
			"byteLength":8424,
			"byteOffset":25272,
			"target":34962
		},
		{
			"buffer":0,
			"byteLength":8424,
			"byteOffset":33696,
			"target":34962
		},
		{
			"buffer":0,
			"byteLength":5040,
			"byteOffset":42120,
			"target":34963
		}
	],
	"buffers":[
		{
			"byteLength":47160,
			"uri":"sigmalogo.bin"
		}
	]
}
