<svg width="127" height="24" viewBox="0 0 127 24" fill="none" xmlns="http://www.w3.org/2000/svg">
<path d="M47.8186 6.8H50.4266V18H47.8186V13.504H43.0666V18H40.4426V6.8H43.0666V11.136H47.8186V6.8ZM58.0183 10.096H60.7383L55.8103 21.424H53.1383L54.6743 17.888L51.6023 10.096H54.3063L55.2183 12.592L56.0823 15.168L57.0103 12.592L58.0183 10.096ZM66.6774 9.936C67.4134 9.936 68.0694 10.112 68.6454 10.464C69.2214 10.8053 69.6694 11.2907 69.9894 11.92C70.3094 12.5387 70.4694 13.248 70.4694 14.048C70.4694 14.848 70.3094 15.5627 69.9894 16.192C69.6694 16.8107 69.2214 17.296 68.6454 17.648C68.0694 17.9893 67.4134 18.16 66.6774 18.16C65.6961 18.16 64.8801 17.8507 64.2294 17.232V21.424H61.7174V10.096H63.8934L64.0534 11.024C64.7148 10.2987 65.5894 9.936 66.6774 9.936ZM66.0854 16.048C66.6401 16.048 67.0934 15.8667 67.4454 15.504C67.7974 15.1307 67.9734 14.6453 67.9734 14.048C67.9734 13.4507 67.7974 12.9707 67.4454 12.608C67.0934 12.2347 66.6401 12.048 66.0854 12.048C65.5308 12.048 65.0774 12.2347 64.7254 12.608C64.3841 12.9813 64.2134 13.4613 64.2134 14.048C64.2134 14.6347 64.3841 15.1147 64.7254 15.488C65.0774 15.8613 65.5308 16.048 66.0854 16.048ZM75.6973 9.92C76.5613 9.92 77.308 10.0853 77.9373 10.416C78.5666 10.736 79.0466 11.1947 79.3773 11.792C79.7186 12.3787 79.8893 13.0667 79.8893 13.856C79.8893 14.112 79.8626 14.4267 79.8093 14.8H74.0013C74.076 15.2053 74.2946 15.536 74.6573 15.792C75.02 16.0373 75.484 16.16 76.0493 16.16C76.444 16.16 76.828 16.1013 77.2013 15.984C77.5746 15.8667 77.8946 15.7013 78.1613 15.488L79.4733 16.896C79.0253 17.312 78.492 17.632 77.8733 17.856C77.2653 18.08 76.6146 18.192 75.9213 18.192C75.004 18.192 74.2093 18.0267 73.5373 17.696C72.8653 17.3547 72.348 16.8747 71.9853 16.256C71.6226 15.6373 71.4413 14.9067 71.4413 14.064C71.4413 13.2533 71.6173 12.5333 71.9693 11.904C72.332 11.2747 72.8333 10.7893 73.4733 10.448C74.1133 10.096 74.8546 9.92 75.6973 9.92ZM75.7773 11.904C75.276 11.904 74.8653 12.032 74.5453 12.288C74.236 12.544 74.06 12.9013 74.0173 13.36H77.5053C77.4733 12.9013 77.3026 12.544 76.9933 12.288C76.6946 12.032 76.2893 11.904 75.7773 11.904ZM85.7759 9.92C86.1386 9.92 86.5013 9.98933 86.8639 10.128C87.2266 10.256 87.5413 10.448 87.8079 10.704L86.7519 12.544C86.5279 12.4053 86.3199 12.304 86.1279 12.24C85.9359 12.176 85.7333 12.144 85.5199 12.144C84.9866 12.144 84.5653 12.3147 84.2559 12.656C83.9466 12.9973 83.7919 13.4987 83.7919 14.16V18H81.2799V10.096H83.4719L83.6639 11.088C84.1759 10.3093 84.8799 9.92 85.7759 9.92ZM88.8957 6.8H91.5197V15.632H97.1517V18H88.8957V6.8ZM102.057 9.92C102.921 9.92 103.667 10.0853 104.297 10.416C104.926 10.736 105.406 11.1947 105.737 11.792C106.078 12.3787 106.249 13.0667 106.249 13.856C106.249 14.112 106.222 14.4267 106.169 14.8H100.361C100.435 15.2053 100.654 15.536 101.017 15.792C101.379 16.0373 101.843 16.16 102.409 16.16C102.803 16.16 103.187 16.1013 103.561 15.984C103.934 15.8667 104.254 15.7013 104.521 15.488L105.833 16.896C105.385 17.312 104.851 17.632 104.233 17.856C103.625 18.08 102.974 18.192 102.281 18.192C101.363 18.192 100.569 18.0267 99.8967 17.696C99.2247 17.3547 98.7074 16.8747 98.3447 16.256C97.982 15.6373 97.8007 14.9067 97.8007 14.064C97.8007 13.2533 97.9767 12.5333 98.3287 11.904C98.6914 11.2747 99.1927 10.7893 99.8327 10.448C100.473 10.096 101.214 9.92 102.057 9.92ZM102.137 11.904C101.635 11.904 101.225 12.032 100.905 12.288C100.595 12.544 100.419 12.9013 100.377 13.36H103.865C103.833 12.9013 103.662 12.544 103.353 12.288C103.054 12.032 102.649 11.904 102.137 11.904ZM112.519 9.92C113.501 9.92 114.279 10.24 114.855 10.88C115.442 11.52 115.735 12.4053 115.735 13.536V18H113.223V13.68C113.223 13.168 113.095 12.768 112.839 12.48C112.583 12.192 112.231 12.048 111.783 12.048C111.293 12.048 110.898 12.2133 110.599 12.544C110.301 12.8747 110.151 13.3067 110.151 13.84V18H107.639V10.096H109.815L109.975 11.024C110.285 10.672 110.653 10.4 111.079 10.208C111.517 10.016 111.997 9.92 112.519 9.92ZM125.818 6.8V18H123.642L123.482 17.056C122.81 17.792 121.935 18.16 120.858 18.16C120.122 18.16 119.466 17.9893 118.89 17.648C118.325 17.296 117.882 16.8107 117.562 16.192C117.242 15.5627 117.082 14.848 117.082 14.048C117.082 13.248 117.242 12.5387 117.562 11.92C117.882 11.2907 118.325 10.8053 118.89 10.464C119.466 10.112 120.122 9.936 120.858 9.936C121.829 9.936 122.645 10.24 123.306 10.848V6.8H125.818ZM121.45 16.048C122.005 16.048 122.458 15.8667 122.81 15.504C123.162 15.1307 123.338 14.6453 123.338 14.048C123.338 13.4507 123.162 12.9707 122.81 12.608C122.458 12.2347 122.005 12.048 121.45 12.048C120.895 12.048 120.442 12.2347 120.09 12.608C119.749 12.9813 119.578 13.4613 119.578 14.048C119.578 14.6347 119.749 15.1147 120.09 15.488C120.442 15.8613 120.895 16.048 121.45 16.048Z" fill="#CAEAE5"/>
<path d="M29.9979 8.88442C29.9979 9.91148 29.9713 10.9385 29.9979 11.9656C30.0245 12.5581 29.7985 12.7425 29.227 12.703C28.6555 12.6635 28.084 12.703 27.4993 12.703C26.7417 12.703 26.1436 12.9926 25.6518 13.5588C24.0038 15.4154 22.3557 17.2589 20.6944 19.1023C20.2425 19.6027 19.6444 19.866 18.94 19.8924C16.7604 19.945 16.5211 19.787 16.5876 17.6144C16.6274 16.2187 16.5876 14.8097 16.6009 13.414C16.6009 12.861 16.4015 12.6635 15.8566 12.703C15.1256 12.7425 14.5541 13.019 14.0756 13.5588C12.4807 15.3628 10.8593 17.1667 9.2511 18.9575C8.48024 19.8134 6.83219 20.2479 5.78222 19.8529C5.26388 19.6553 5.01136 19.2603 5.02465 18.681C5.05123 16.9692 5.02465 15.2706 5.02465 13.5588C5.02465 12.7556 4.99807 12.7161 4.14746 12.7161C2.99117 12.7161 1.84817 12.6898 0.705163 12.7161C0.146953 12.7293 -0.0125363 12.5318 0.000754377 11.9919C0.0406265 10.6752 0.000755189 9.37162 0.0140459 8.05488C0.0273366 6.38262 1.35641 5.06587 3.03104 5.05271C3.76203 5.05271 4.49302 5.09221 5.22401 5.03954C5.78222 5.00004 5.87525 5.22388 5.87525 5.71108C5.84867 7.46234 5.87525 9.2136 5.87525 10.9649C5.87525 11.2941 5.87525 11.6232 6.19423 11.8471C6.60624 12.1499 6.92522 12.0051 7.23091 11.6627C8.57327 10.1617 9.99538 8.71325 11.2447 7.13316C12.7997 5.19755 14.8465 4.86836 17.1192 5.03954C17.5445 5.07904 17.4249 5.40823 17.4382 5.63207C17.4382 7.3175 17.4382 9.00293 17.4382 10.6884C17.4382 10.8859 17.4382 11.0834 17.4515 11.2809C17.4913 11.6101 17.6375 11.8734 17.9698 11.9788C18.2888 12.0709 18.5546 11.9656 18.7938 11.7022C20.1894 10.1222 21.6248 8.58157 23.007 6.98832C24.1633 5.65841 25.5588 4.96053 27.3398 5.03954C28.0176 5.06587 28.7087 5.06587 29.3998 5.03954C29.8384 5.02637 29.9846 5.18438 29.9846 5.60574C29.9713 6.69863 29.9846 7.79153 29.9846 8.88442H29.9979Z" fill="#CAEAE5"/>
</svg>
