<?xml version="1.0" encoding="UTF-8"?>
<svg xmlns:xodm="http://www.corel.com/coreldraw/odm/2003" xmlns="http://www.w3.org/2000/svg" xmlns:xlink="http://www.w3.org/1999/xlink" version="1.1" id="Layer_1" x="0px" y="0px" viewBox="0 0 2500 268" style="enable-background:new 0 0 2500 268;" xml:space="preserve">
<style type="text/css">
	.st0{fill:#3156AA;}
	.st1{fill:#1972E2;}
	.st2{fill:url(#SVGID_1_);}
	.st3{fill:#326AD5;}
	.st4{fill:#151617;}
</style>
<g id="Layer_x0020_1">
	<g id="_2500575993552">
		<path class="st0" d="M429.5,189.3L335.1,25.6C314.4-8.5,264-8.9,244,27L145,197.2c-18.5,31.2,4.4,70.4,41.4,70.4h198.5    C422.2,267.6,450.2,227.4,429.5,189.3z"></path>
		<path class="st1" d="M293.4,202l-5.8-10.2c-5.4-9.4-17.4-29.8-17.4-29.8L190.3,23.4C169.7-7.4,120.7-10,100,28.9L7.1,189.6    c-19.2,33.8,3.6,77.7,45.4,78h197.4h84.2h50.1C333,268,316.6,241.5,293.4,202L293.4,202z"></path>
		
			<linearGradient id="SVGID_1_" gradientUnits="userSpaceOnUse" x1="125.4098" y1="128.6277" x2="339.7498" y2="44.4777" gradientTransform="matrix(1.0032 0 0 -1.0032 -2.8432 269.6554)">
			<stop offset="0" style="stop-color:#264CA2;stop-opacity:0"></stop>
			<stop offset="1" style="stop-color:#234588"></stop>
		</linearGradient>
		<path class="st2" d="M293.4,202l-5.8-10.2c-5.4-9.4-17.4-29.8-17.4-29.8l-52.1-90.4l-73.5,126C126.1,228.8,149,268,186,268h63.5    h84.2h50.4C332.6,267.6,316.6,241.5,293.4,202L293.4,202z"></path>
		<path class="st3" d="M2481.5,254.6c-15.7,0-28-3.4-37.4-9.3c-9.8-6.4-14.9-15.7-14.9-28.5V31.5h24.6c8.9,0,16.6,7.2,16.6,16.6    v163.2c0,0.4,0,8.1,6.4,14.4c3.8,3.8,8.5,5.9,14.9,5.9h4.7c1.7,0,3.4,1.7,3.4,3.4v20L2481.5,254.6z"></path>
		<path class="st3" d="M1950.3,254.6c-25.5,0-46.3-6.8-62-20.4c-8.1-6.8-13.6-14.5-17-22.9c-3.4-8.5-5.1-20.8-5.1-37.4    c0-16.1,1.7-28.9,5.1-37.4c3-8.1,8.5-15.3,16.6-22.1c15.7-13.6,36.6-20.4,62-20.4c25.5,0,46.3,6.8,62,20.4    c8.1,6.8,13.6,14.4,16.6,22.1c3.4,8.9,5.1,21.3,5.1,37.4c0,16.6-1.7,28.9-5.1,37.4c-3.4,8.5-8.9,16.1-17,22.9    C1996.6,247.8,1975.8,254.6,1950.3,254.6L1950.3,254.6z M1950.3,117.4c-28,0-42.1,19.1-42.1,56.9c0,38.3,14,57.4,42.1,57.4    c28.1,0,42.1-19.1,42.1-56.9C1992.4,136.5,1977.9,117.4,1950.3,117.4z"></path>
		<path class="st3" d="M2126.3,254.6c-22.1,0-42.5-5.9-59.9-17.4c-1.7-1.7-5.1-3.8-9.4-6.4c-0.8-0.4-1.7-1.7-1.7-3V31.5h25.1    c8.9,0,16.6,7.7,16.6,16.6v57.4l7.7-4.3c8.9-4.7,20.8-6.8,36.1-6.8c26.8,0,47.2,8.1,60.8,23.8c11.9,14,17.9,32.7,17.9,55.7    s-6.8,41.7-20.4,55.2C2183.2,246.1,2158.6,254.6,2126.3,254.6z M2130.5,117.4c-9.4,0-20,3.4-31.9,10.6l-1.7,0.9v92.2l1.7,1.3    c9.3,5.9,20.4,8.9,31.9,8.9c15.3,0,27.2-6.4,35.3-19.1c6.8-10.2,10.6-23.4,10.6-38.3C2176.4,136.5,2160.7,117.4,2130.5,117.4z"></path>
		<path class="st3" d="M2317.5,254.2c-46.7,0-76.1-30.6-76.1-80.3c0-49.3,28.9-79.9,75.2-79.9c17.8,0,33.1,4.7,45.5,13.6l2.5,1.7V97    h32.7c2.1,0,3.4,1.7,3.4,3.4v150.9h-36.5v-13.6l-2.5,2.1C2351.5,249.1,2335.3,254.2,2317.5,254.2z M2326,121.2    c-29.3,0-46.7,22.5-46.7,52.7s17.4,53.5,46.7,53.5c9.3,0,25.5-0.9,38.3-13.6l0.4-0.4v-77.3l-0.4-0.4    C2355.3,125.4,2342.1,121.2,2326,121.2z"></path>
		<path class="st4" d="M807.6,252.5V31.1h184v14c0,11.1-8.9,20-20,20H853.5v59.5h118.1v34H853.5v59.5h118.1c11,0,20,8.9,20,20v14    L807.6,252.5L807.6,252.5z"></path>
		<path class="st4" d="M1255.9,31.1h-43.3c-8.1,0-15.3,3.4-20.4,9.8l-52.3,65.9l-52.3-65.4c-5.1-6.4-12.3-9.8-20.4-9.8h-43.3    l88,110.5l-88,110.5h43.3c8.1,0,15.3-3.4,20.4-9.8l52.3-65.4l52.7,65.9c5.1,5.9,12.3,9.8,20.4,9.8h43.3l-88-110.5L1255.9,31.1    L1255.9,31.1z"></path>
		<path class="st4" d="M663.5,229.1l60.3-105.4v128.3h45.9V30.7h-28.5c-8.9,0-17.4,4.7-21.7,12.8l-72.2,131.7L575.1,43.4    c-4.3-8.1-12.8-12.8-21.7-12.8H525v221.4h45.9V123.7l60.3,105.4H663.5L663.5,229.1z"></path>
		<path class="st4" d="M1375.8,255c-63.7,0.8-115.6-49.3-116-113c0-34.9,10.6-63.8,30.6-83.7c20-19.6,48.9-30.2,83.3-30.2    c40.4,0,72.2,14,95.2,41.2l-14.4,12.3c-8.9,7.6-22.1,8.1-31.9,0.9c-12.8-9.8-28.9-14.5-47.2-14.5c-45,0-71.8,27.2-71.8,73.1    c0,46.3,27.6,74.8,71.8,74.8c18.7,0,34.4-5.1,47.2-14.4c9.4-7.2,22.5-6.8,31.9,0.9l14.4,12.3C1445.9,241.4,1415.3,255,1375.8,255z    "></path>
		<path class="st3" d="M1658.4,255c-71.4,0-115.6-43.3-115.6-113c0-69.7,44.2-113,114.7-113c34,0,62.5,9.8,84.6,29.8l-10.6,11.9    c-4.7,5.1-11.5,8.1-18.3,8.1c-3.8,0-7.7-0.9-11-2.6c-13.2-6.8-28.5-10.2-44.6-10.2c-45.9,0-74.4,29.3-74.4,76.5    c0,47.6,29.7,76.9,77.3,76.9c23,0,40.8-4.3,54-13.6l0.8-0.4v-45.5h-50.6V145c0-11,8.9-20,20-20h62.5c1.7,0,3.4,1.7,3.4,3.4v98.2    C1728.9,245.3,1697.9,255,1658.4,255z"></path>
		<path class="st3" d="M1832.6,254.6c-15.7,0-28.1-3.4-37.4-9.3c-9.8-6.4-14.9-15.7-14.9-28.5V31.5h24.6c8.9,0,16.6,7.2,16.6,16.6    v163.2c0,0.4,0,8.1,6.4,14.4c3.8,3.8,8.5,5.9,14.9,5.9h4.7c1.7,0,3.4,1.7,3.4,3.4v20L1832.6,254.6L1832.6,254.6z"></path>
	</g>
</g>
</svg>
